<?xml version="1.0" standalone="no"?><!DOCTYPE svg PUBLIC "-//W3C//DTD SVG 1.1//EN" "http://www.w3.org/Graphics/SVG/1.1/DTD/svg11.dtd"><svg t="1582914292923" class="icon" viewBox="0 0 1024 1024" version="1.1" xmlns="http://www.w3.org/2000/svg" p-id="674" xmlns:xlink="http://www.w3.org/1999/xlink" width="16" height="16"><defs><style type="text/css"></style></defs><path d="M533.333333 725.333333a64 64 0 1 1-64 64 64 64 0 0 1 64-64m0-85.333333a149.333333 149.333333 0 1 0 149.333334 149.333333 149.333333 149.333333 0 0 0-149.333334-149.333333z" fill="#4fc3f7" p-id="675"></path><path d="M533.333333 277.333333m-106.666666 0a106.666667 106.666667 0 1 0 213.333333 0 106.666667 106.666667 0 1 0-213.333333 0Z" fill="#4fc3f7" p-id="676"></path><path d="M277.333333 320m-106.666666 0a106.666667 106.666667 0 1 0 213.333333 0 106.666667 106.666667 0 1 0-213.333333 0Z" fill="#4fc3f7" p-id="677"></path><path d="M789.333333 320m-106.666666 0a106.666667 106.666667 0 1 0 213.333333 0 106.666667 106.666667 0 1 0-213.333333 0Z" fill="#4fc3f7" p-id="678"></path><path d="M512 341.333333h42.666667v384h-42.666667z" fill="#4fc3f7" p-id="679"></path><path d="M741.290667 357.504l30.165333 30.165333-225.066667 225.066667-30.165333-30.165333z" fill="#4fc3f7" p-id="680"></path><path d="M558.08 582.016l-30.165333 30.165333-228.693334-228.693333 30.165334-30.165333z" fill="#4fc3f7" p-id="681"></path></svg>