<?xml version="1.0" standalone="no"?><!DOCTYPE svg PUBLIC "-//W3C//DTD SVG 1.1//EN" "http://www.w3.org/Graphics/SVG/1.1/DTD/svg11.dtd"><svg t="1582917413392" class="icon" viewBox="0 0 1024 1024" version="1.1" xmlns="http://www.w3.org/2000/svg" p-id="22914" xmlns:xlink="http://www.w3.org/1999/xlink" width="16" height="16"><defs><style type="text/css"></style></defs><path d="M512 19.65056C240.09216 19.65056 19.65056 240.09216 19.65056 512S240.09216 1004.34944 512 1004.34944s492.35456-220.4416 492.35456-492.34944S783.90272 19.65056 512 19.65056z m0 958.16192c-257.2544 0-465.80736-208.55296-465.80736-465.81248C46.19264 254.7456 254.7456 46.19264 512 46.19264S977.81248 254.7456 977.81248 512 769.24928 977.81248 512 977.81248z" fill="#4fc3f7" p-id="22915"></path><path d="M676.93568 600.24832c-1.95584-7.79776-5.05856-15.96928-9.3184-24.48896-5.67808-10.6496-12.06784-18.71872-19.16416-24.22784-7.10656-5.49888-17.57696-10.73152-31.42144-15.70816 17.38752-5.66784 31.42144-14.01344 42.07104-25.02144 17.03424-18.45248 25.55392-44.544 25.55392-78.27456 0-16.68096-3.64544-32.03072-10.91584-46.05952-7.28064-14.01856-17.664-25.2928-31.15008-33.81248-19.52256-12.77952-54.13888-19.16928-103.8336-19.16928H365.16864v355.16416H440.7808V553.9328h60.70272c26.2656-0.34816 46.32576 3.18976 60.17024 10.6496 10.99776 6.38976 19.2512 15.08864 24.76032 26.09152 5.49888 11.00288 9.13408 26.8032 10.91584 47.39072 2.83648 25.55904 5.49888 42.4192 7.9872 50.5856h84.66432c-3.54816-10.29632-6.38976-28.22656-8.51968-53.78048-1.06496-15.26272-2.57536-26.8032-4.52608-34.62144zM584.5504 482.57536c-7.45472 5.3248-20.06016 7.9872-37.80608 7.9872H440.7808V396.84608h105.96352c13.48608 0 23.2448 1.06496 29.2864 3.19488 17.03936 6.0416 25.55904 19.88608 25.55904 41.53344 0 19.52768-5.6832 33.19808-17.03936 41.00096z" fill="#4fc3f7" p-id="22916"></path></svg>