<?xml version="1.0" standalone="no"?><!DOCTYPE svg PUBLIC "-//W3C//DTD SVG 1.1//EN" "http://www.w3.org/Graphics/SVG/1.1/DTD/svg11.dtd"><svg t="1582917571320" class="icon" viewBox="0 0 1024 1024" version="1.1" xmlns="http://www.w3.org/2000/svg" p-id="25908" xmlns:xlink="http://www.w3.org/1999/xlink" width="16" height="16"><defs><style type="text/css"></style></defs><path d="M338.56 380.48l-100.16 263.040h37.547l25.28-72h109.44l26.88 72h37.547l-100.16-263.040h-36.373zM311.893 541.76l39.36-109.333c1.6-4.267 2.987-10.453 4.267-18.347h0.853c1.493 8.747 2.88 14.827 4.053 18.347l39.787 109.333h-88.32zM653.973 400.96c-15.68-13.653-37.76-20.587-66.133-20.587h-74.667v263.040h33.92v-98.347h34.133c27.52 0.853 50.453-6.613 68.8-22.72 18.347-16 27.52-36.907 27.52-62.72-0.107-25.387-7.893-44.907-23.573-58.667zM625.707 501.227c-10.773 9.387-26.453 13.973-47.253 13.973h-31.467v-104.96h34.667c40.107 0 60.16 16.96 60.16 50.773 0 17.493-5.44 30.933-16.107 40.213zM700.587 409.173h25.28v205.653h-25.28v28.693h84.48v-28.693h-25.28v-205.653h25.28v-28.693h-84.48z" p-id="25909" fill="#4fc3f7"></path><path d="M511.68 32c-264.64 0-480 215.36-480 480s215.36 480 480 480 480-215.36 480-480-215.253-480-480-480zM511.68 949.333c-241.173 0-437.333-196.16-437.333-437.333s196.16-437.333 437.333-437.333 437.333 196.16 437.333 437.333-196.16 437.333-437.333 437.333z" p-id="25910" fill="#4fc3f7"></path></svg>