<svg t="1582919580548" class="icon" viewBox="0 0 1024 1024" version="1.1" xmlns="http://www.w3.org/2000/svg" p-id="59443" width="16" height="16"><path d="M429.48608 701.312c2.51392-4.97152 5.01248-10.06592 5.01248-16.30208 0-7.57248-2.50368-12.63616-7.57248-16.3328-3.70176-3.75808-8.77056-5.02272-15.08864-6.42048h-32.6912v93.1072h12.53888v-38.95808h12.63616l7.51616 12.63616 18.84672 26.32704h15.14496l-30.23872-43.96544c6.27712-2.51904 10.09152-6.33344 13.89568-10.09152z m-17.64352 1.26464c-3.8144 2.49344-8.82176 3.79392-16.34816 3.79392h-3.80416v-33.9968h7.56736c6.31296 0 10.07616 1.3056 12.58496 2.51392 6.31808 1.30048 8.82176 6.3232 8.82176 11.33056 0 6.3232-2.50368 11.42272-6.26176 15.08864-0.00512 0.00512-1.3056 1.26976-2.56 1.26976zM448.34304 203.136V454.7584c0 33.9968-2.5088 57.86624-8.7808 70.45632-6.36416 10.0864-15.13984 16.39424-27.7248 16.39424 0 0-1.20832 1.2032-2.51392 1.2032-12.57984 0-22.60992-6.272-28.8768-18.85696-5.06368-13.83424-7.61856-36.5056-7.61856-69.20192V203.136H297.40544V454.7584c0 52.80256 8.7808 93.06112 27.58144 119.48544 16.40448 22.6816 45.32736 35.26144 84.33664 35.26144h2.51392c40.26368-1.3056 69.1968-13.84448 85.59104-37.8112 7.48032-9.97376 12.544-22.60992 16.34816-36.39296 6.26688-22.67136 10.02496-49.152 10.02496-80.5376V203.136H448.34304z" fill="#4fc3f7" p-id="59444"></path><path d="M674.7904 45.89056c-50.35008-17.60256-104.43776-26.48064-161.01376-26.48064-35.2512 0-67.9424 3.8144-101.9392 10.13248-222.62784 47.78496-392.51968 246.60992-392.51968 484.38784 0 236.48256 169.89184 436.54656 392.5248 483.08224 33.9968 6.272 66.68288 10.03008 101.9392 10.03008 56.57088 0 110.66368-8.78592 161.01376-26.48064 193.75616-66.59072 333.34272-251.52512 333.34272-466.63168-0.00512-216.41728-139.59168-401.34144-333.34784-468.03968z m0 861.76768c-50.35008 20.15232-104.43776 31.48288-161.01376 31.48288-35.2512 0-69.248-3.8144-101.9392-11.33568-184.9344-46.53568-324.5824-215.168-324.5824-413.88032 0-200.06912 139.64288-368.65024 324.5824-413.88032 32.6912-8.92416 66.68288-12.63616 101.9392-12.63616 56.57088 0 110.66368 11.33056 161.01376 31.4368 154.75712 62.92992 265.46688 216.3712 265.46688 395.07968 0 177.32096-110.70976 330.84416-265.46688 393.73312z" fill="#4fc3f7" p-id="59445"></path><path d="M411.84256 637.18912h-3.8144c-40.21248 0-72.90368 32.73216-72.90368 72.99584 0 40.22784 32.6912 72.91904 72.90368 72.91904h3.8144c39.00928-2.45248 69.1968-33.95584 69.1968-72.91904 0-39.1168-30.19264-70.5024-69.1968-72.99584z m0 135.8848h-3.8144c-35.19488 0-62.8736-27.68384-62.8736-62.88896 0-35.29728 27.67872-62.92992 62.8736-62.92992h3.8144c32.6912 2.45248 59.17184 30.1824 59.17184 62.92992-0.00512 32.69632-26.48576 60.38016-59.17184 62.88896zM639.54944 703.76448V370.42176h-75.4688v400.14336H784.19968v-66.80064h-109.40928z" fill="#4fc3f7" p-id="59446"></path></svg>