<?xml version="1.0" standalone="no"?><!DOCTYPE svg PUBLIC "-//W3C//DTD SVG 1.1//EN" "http://www.w3.org/Graphics/SVG/1.1/DTD/svg11.dtd"><svg t="1582917836470" class="icon" viewBox="0 0 1024 1024" version="1.1" xmlns="http://www.w3.org/2000/svg" p-id="34628" xmlns:xlink="http://www.w3.org/1999/xlink" width="16" height="16"><defs><style type="text/css"></style></defs><path d="M151.30483092 870.01382017c199.2061224 199.2061224 522.18421577 199.2061224 721.39245948-0.00212132 199.2068295-199.2068295 199.2068295-522.18492288 0.00070711-721.39104527C673.48975379-50.58759014 350.51095331-50.58829725 151.30412381 148.61853226-47.9034128 347.82606886-47.9034128 670.80557645 151.30483092 870.01382017zM454.59141465 182.04417691c36.73843992-36.73843992 96.30299385-36.73914703 133.04214088 0s36.73843992 96.30370096 0 133.04214088c-11.15955922 11.15955922-24.42841797 18.92288457-38.52034901 23.30341108L535.83374117 667.46591113a93.531 93.531 0 0 1 40.64166935 20.99965718l125.90955478-125.90955478c-32.2108352-36.95552171-30.72803228-93.07505139 4.45830826-128.26139193 36.73843992-36.73843992 96.30370096-36.73843992 133.04214088 0 36.73914703 36.73914703 36.73914703 96.30440806 0.0007071 133.04284799-32.6379277 32.6379277-83.28869354 36.27882052-119.94864461 10.92692109L592.07560033 706.12626728c24.97076887 36.61823177 21.21886029 86.95292088-11.26986788 119.44164905-36.73914703 36.73914703-96.30440806 36.73914703-133.04355509 0-36.73914703-36.73914703-36.73843992-96.30370096 0.0007071-133.04284799 17.88909446-17.88909446 41.19038422-27.06380494 64.63309534-27.53120252l13.01076477-322.45200593c-20.53862357 0.93338095-41.32332029-4.83378196-58.80512124-17.29229634L339.06996559 452.78122129c26.18204279 36.73914703 22.79924395 88.06944249-10.16183155 121.03051799-36.73914703 36.73914703-96.30370096 36.73985414-133.04284799 0.0007071s-36.73843992-96.30370096 0.00070711-133.04284798c34.87167802-34.87167802 90.30460703-36.63944497 127.2671998-5.31249325l126.14572844-126.14572844c-31.32765883-36.96188567-29.55989188-92.39481467 5.31249325-127.2671998z" fill="#4fc3f7" p-id="34629"></path></svg>