<?xml version="1.0" standalone="no"?><!DOCTYPE svg PUBLIC "-//W3C//DTD SVG 1.1//EN" "http://www.w3.org/Graphics/SVG/1.1/DTD/svg11.dtd"><svg t="1582917989684" class="icon" viewBox="0 0 1078 1024" version="1.1" xmlns="http://www.w3.org/2000/svg" p-id="40246" xmlns:xlink="http://www.w3.org/1999/xlink" width="16.84375" height="16"><defs><style type="text/css"></style></defs><path d="M486.070655 46.98781c-172.647927-2.341797-338.999963 108.769661-404.487206 268.253882-68.401911 156.698651-32.861091 351.356333 86.790757 473.566407 115.079317 123.873157 304.685098 169.339321 463.480164 111.380094 164.571245-56.04032 286.067483-217.658927 292.671881-391.6078 11.077732-170.92694-89.483775-341.455195-243.460456-415.90999C620.772366 62.582067 553.443581 46.891461 486.070655 46.98781z m0 47.462434c170.524458-2.965928 332.704071 119.527496 376.731649 284.266759 46.0528 155.158495-16.239272 334.802385-149.937152 426.698676C573.983899 907.495984 368.031581 900.11083 236.881958 788.25611c-132.142062-105.357112-179.44265-300.235969-111.644935-454.776503C183.999314 190.61151 331.503542 92.636705 486.070655 94.450244z m168.268569 204.485254l-99.783598 202.275403-124.069651-161.378921-112.683414 333.263178 126.331711-162.382752 130.313809 149.11273 79.890668-360.890112z m-212.820132 106.72403l117.971678 149.566471 29.46373-65.590711-28.2074 113.487902-120.409823-141.647364-48.851185 75.520801 50.033-131.337573z" p-id="40247" fill="#4fc3f7"></path></svg>