<?xml version="1.0" standalone="no"?><!DOCTYPE svg PUBLIC "-//W3C//DTD SVG 1.1//EN" "http://www.w3.org/Graphics/SVG/1.1/DTD/svg11.dtd"><svg t="1582918155114" class="icon" viewBox="0 0 1024 1024" version="1.1" xmlns="http://www.w3.org/2000/svg" p-id="45230" xmlns:xlink="http://www.w3.org/1999/xlink" width="16" height="16"><defs><style type="text/css"></style></defs><path d="M480 640v-64h64v64h-64z m160-192v-64h64v64h-64z m-320 192v-64h64v64h-64z m320 0v-64h64v64h-64z m128 128V256h-192v192l-160-96v96l-160-96v416h512zM512 0c282.752 0 512 229.216 512 512 0 282.752-229.248 512-512 512S0 794.752 0 512C0 229.216 229.248 0 512 0z" p-id="45231" fill="#4fc3f7"></path></svg>