<?xml version="1.0" standalone="no"?><!DOCTYPE svg PUBLIC "-//W3C//DTD SVG 1.1//EN" "http://www.w3.org/Graphics/SVG/1.1/DTD/svg11.dtd"><svg t="1582915827466" class="icon" viewBox="0 0 1024 1024" version="1.1" xmlns="http://www.w3.org/2000/svg" p-id="707" xmlns:xlink="http://www.w3.org/1999/xlink" width="16" height="16"><defs><style type="text/css"></style></defs><path d="M761.856 293.888c0-49.152-111.616-89.088-249.856-89.088s-249.856 39.936-249.856 89.088v30.72c0 49.152 111.616 89.088 249.856 89.088s249.856-39.936 249.856-89.088v-30.72z m-499.712 102.4c0 38.912 111.616 69.632 249.856 69.632s249.856-30.72 249.856-69.632v63.488c0 49.152-111.616 89.088-249.856 89.088s-249.856-39.936-249.856-89.088v-63.488z m0 0c0 38.912 111.616 69.632 249.856 69.632s249.856-30.72 249.856-69.632v63.488c0 49.152-111.616 89.088-249.856 89.088s-249.856-39.936-249.856-89.088v-63.488z m0 135.168c0 38.912 111.616 69.632 249.856 69.632s249.856-30.72 249.856-69.632V593.92c0 49.152-111.616 89.088-249.856 89.088s-249.856-38.912-249.856-87.04v-64.512z m0 136.192c0 38.912 112.64 69.632 249.856 69.632s249.856-30.72 249.856-69.632v63.488c0 49.152-111.616 89.088-249.856 89.088s-249.856-39.936-249.856-89.088v-63.488z" p-id="708" fill="#4fc3f7"></path></svg>