<?xml version="1.0" standalone="no"?><!DOCTYPE svg PUBLIC "-//W3C//DTD SVG 1.1//EN" "http://www.w3.org/Graphics/SVG/1.1/DTD/svg11.dtd"><svg t="1582918357257" class="icon" viewBox="0 0 1026 1024" version="1.1" xmlns="http://www.w3.org/2000/svg" p-id="49229" xmlns:xlink="http://www.w3.org/1999/xlink" width="16.03125" height="16"><defs><style type="text/css"></style></defs><path d="M511.6 0C229.05 0 0 228.8 0 511.05s229.05 511.05 511.6 511.05 511.6-228.8 511.6-511S794.15 0 511.6 0z m245.86 404.58a29.84 29.84 0 0 1-59.68 0v-53.32a42.58 42.58 0 0 0-15.26-32.66l-42.21-35.25a42.63 42.63 0 0 0-27.37-9.93h-247.7a42.62 42.62 0 0 0-42.64 42.59v390.1a42.62 42.62 0 0 0 42.64 42.59h332.54v-11.93a29.84 29.84 0 0 1 59.68 0v42.58a29.81 29.81 0 0 1-28.13 29.76v0.06H305.55a42.62 42.62 0 0 1-42.63-42.6v-511a42.59 42.59 0 0 1 42.63-42.59h326.28a42.63 42.63 0 0 1 26.17 8.9l83 64.27a42.49 42.49 0 0 1 16.54 33.64zM515.14 607.81l10.45-12.05a21.32 21.32 0 0 1 30.26-2l28.14 25a21.34 21.34 0 0 0 30.87-2.68l83.9-105.67a21.36 21.36 0 0 1 30.24-3.24l12.23 10a21.28 21.28 0 0 1 3.2 29.73L627.14 694.56a28.79 28.79 0 0 1-41.78 3.66l-68.22-60.6a21.28 21.28 0 0 1-2-29.81z m-72.86-179.17a21.61 21.61 0 0 1-21.62-21.59 21.57 21.57 0 0 1 21.62-21.55h135.83a21.59 21.59 0 1 1 0 43.18z" p-id="49230" fill="#4fc3f7"></path></svg>