<?xml version="1.0" standalone="no"?><!DOCTYPE svg PUBLIC "-//W3C//DTD SVG 1.1//EN" "http://www.w3.org/Graphics/SVG/1.1/DTD/svg11.dtd"><svg t="1582914637241" class="icon" viewBox="0 0 1024 1024" version="1.1" xmlns="http://www.w3.org/2000/svg" p-id="2619" xmlns:xlink="http://www.w3.org/1999/xlink" width="16" height="16"><defs><style type="text/css"></style></defs><path d="M512 298.666667V128H85.333333v768h853.333334V298.666667H512zM256 810.666667H170.666667v-85.333334h85.333333v85.333334z m0-170.666667H170.666667v-85.333333h85.333333v85.333333z m0-170.666667H170.666667V384h85.333333v85.333333z m0-170.666666H170.666667V213.333333h85.333333v85.333334z m170.666667 512H341.333333v-85.333334h85.333334v85.333334z m0-170.666667H341.333333v-85.333333h85.333334v85.333333z m0-170.666667H341.333333V384h85.333334v85.333333z m0-170.666666H341.333333V213.333333h85.333334v85.333334z m426.666666 512h-341.333333v-85.333334h85.333333v-85.333333h-85.333333v-85.333333h85.333333v-85.333334h-85.333333V384h341.333333v426.666667z m-85.333333-341.333334h-85.333333v85.333334h85.333333v-85.333334z m0 170.666667h-85.333333v85.333333h85.333333v-85.333333z" p-id="2620" fill="#4fc3f7"></path></svg>