<?xml version="1.0" standalone="no"?><!DOCTYPE svg PUBLIC "-//W3C//DTD SVG 1.1//EN" "http://www.w3.org/Graphics/SVG/1.1/DTD/svg11.dtd"><svg t="1582918450311" class="icon" viewBox="0 0 1024 1024" version="1.1" xmlns="http://www.w3.org/2000/svg" p-id="50873" xmlns:xlink="http://www.w3.org/1999/xlink" width="16" height="16"><defs><style type="text/css"></style></defs><path d="M168.32 254.912a32 32 0 1 1-16.64-61.824 32 32 0 0 1 16.64 61.824z m21.248 557.312a32 32 0 1 1-59.136-24.448 32 32 0 0 1 59.136 24.448z m-41.792-270.72a32 32 0 1 1 24.448-59.072 32 32 0 0 1-24.448 59.136zM866.176 192c16.512 0 29.824 14.272 29.824 32 0 17.664-13.44 32-29.888 32H349.888C333.44 256 320 241.664 320 224s13.44-32 29.888-32h516.288z m0 288c16.512 0 29.824 14.272 29.824 32 0 17.664-13.44 32-29.888 32H349.888C333.44 544 320 529.664 320 512s13.44-32 29.888-32h516.288z m0 288c16.512 0 29.824 14.272 29.824 32 0 17.664-13.44 32-29.888 32H349.888C333.44 832 320 817.664 320 800s13.44-32 29.888-32h516.288z" p-id="50874" fill="#4fc3f7"></path></svg>